<?xml version="1.0" encoding="UTF-8" standalone="no"?>
<!-- Generator: Adobe Illustrator 16.0.0, SVG Export Plug-In . SVG Version: 6.00 Build 0)  -->

<svg
   xmlns:dc="http://purl.org/dc/elements/1.1/"
   xmlns:cc="http://creativecommons.org/ns#"
   xmlns:rdf="http://www.w3.org/1999/02/22-rdf-syntax-ns#"
   xmlns:svg="http://www.w3.org/2000/svg"
   xmlns="http://www.w3.org/2000/svg"
   xmlns:sodipodi="http://sodipodi.sourceforge.net/DTD/sodipodi-0.dtd"
   xmlns:inkscape="http://www.inkscape.org/namespaces/inkscape"
   version="1.1"
   id="Capa_1"
   x="0px"
   y="0px"
   width="510.127px"
   height="510.127px"
   viewBox="0 0 510.127 510.127"
   style="enable-background:new 0 0 510.127 510.127;"
   xml:space="preserve"
   inkscape:version="0.91 r13725"
   sodipodi:docname="ruble-currency-sign.svg"><metadata
     id="metadata43"><rdf:RDF><cc:Work
         rdf:about=""><dc:format>image/svg+xml</dc:format><dc:type
           rdf:resource="http://purl.org/dc/dcmitype/StillImage" /></cc:Work></rdf:RDF></metadata><defs
     id="defs41" /><sodipodi:namedview
     pagecolor="#ffffff"
     bordercolor="#666666"
     borderopacity="1"
     objecttolerance="10"
     gridtolerance="10"
     guidetolerance="10"
     inkscape:pageopacity="0"
     inkscape:pageshadow="2"
     inkscape:window-width="689"
     inkscape:window-height="480"
     id="namedview39"
     showgrid="false"
     inkscape:zoom="0.46262988"
     inkscape:cx="255.06351"
     inkscape:cy="255.06351"
     inkscape:window-x="33"
     inkscape:window-y="112"
     inkscape:window-maximized="0"
     inkscape:current-layer="Capa_1" /><g
     id="g3"
     style="fill:#d62008;fill-opacity:1"><g
       id="g5"
       style="fill:#d62008;fill-opacity:1"><path
         d="M34.786,428.963h81.158v69.572c0,3.385,1.083,6.156,3.262,8.322c2.173,2.18,4.951,3.27,8.335,3.27h60.502    c3.14,0,5.857-1.09,8.152-3.27c2.295-2.166,3.439-4.938,3.439-8.322v-69.572h182.964c3.377,0,6.156-1.076,8.334-3.256    c2.18-2.178,3.262-4.951,3.262-8.336v-46.377c0-3.365-1.082-6.156-3.262-8.322c-2.172-2.18-4.957-3.27-8.334-3.27H199.628v-42.754    h123.184c48.305,0,87.73-14.719,118.293-44.199c30.551-29.449,45.834-67.49,45.834-114.125c0-46.604-15.283-84.646-45.834-114.125    C410.548,14.749,371.116,0,322.812,0H127.535c-3.385,0-6.157,1.089-8.335,3.256c-2.173,2.179-3.262,4.969-3.262,8.335v227.896    H34.786c-3.384,0-6.157,1.145-8.335,3.439c-2.172,2.295-3.262,5.012-3.262,8.151v53.978c0,3.385,1.083,6.158,3.262,8.336    c2.179,2.18,4.945,3.256,8.335,3.256h81.158v42.754H34.786c-3.384,0-6.157,1.09-8.335,3.27c-2.172,2.166-3.262,4.951-3.262,8.322    v46.377c0,3.385,1.083,6.158,3.262,8.336C28.629,427.887,31.401,428.963,34.786,428.963z M199.628,77.179h115.938    c25.6,0,46.248,7.485,61.953,22.46c15.697,14.976,23.549,34.547,23.549,58.691c0,24.156-7.852,43.733-23.549,58.691    c-15.705,14.988-36.354,22.473-61.953,22.473H199.628V77.179z"
         id="path7"
         style="fill:#d62008;fill-opacity:1" /></g></g><g
     id="g9" /><g
     id="g11" /><g
     id="g13" /><g
     id="g15" /><g
     id="g17" /><g
     id="g19" /><g
     id="g21" /><g
     id="g23" /><g
     id="g25" /><g
     id="g27" /><g
     id="g29" /><g
     id="g31" /><g
     id="g33" /><g
     id="g35" /><g
     id="g37" /></svg>