<?xml version="1.0" encoding="UTF-8" standalone="no"?>
<!-- Created with Inkscape (http://www.inkscape.org/) -->

<svg
   xmlns:dc="http://purl.org/dc/elements/1.1/"
   xmlns:cc="http://creativecommons.org/ns#"
   xmlns:rdf="http://www.w3.org/1999/02/22-rdf-syntax-ns#"
   xmlns:svg="http://www.w3.org/2000/svg"
   xmlns="http://www.w3.org/2000/svg"
   xmlns:sodipodi="http://sodipodi.sourceforge.net/DTD/sodipodi-0.dtd"
   xmlns:inkscape="http://www.inkscape.org/namespaces/inkscape"
   width="150mm"
   height="97mm"
   viewBox="0 0 531.49606 343.70079"
   id="svg2"
   version="1.1"
   inkscape:version="0.91 r13725"
   sodipodi:docname="adaptive.svg">
  <defs
     id="defs4" />
  <sodipodi:namedview
     id="base"
     pagecolor="#ffffff"
     bordercolor="#666666"
     borderopacity="1.0"
     inkscape:pageopacity="0.0"
     inkscape:pageshadow="2"
     inkscape:zoom="0.98994949"
     inkscape:cx="108.5855"
     inkscape:cy="137.73327"
     inkscape:document-units="px"
     inkscape:current-layer="layer1"
     showgrid="false"
     inkscape:window-width="1366"
     inkscape:window-height="705"
     inkscape:window-x="-8"
     inkscape:window-y="-8"
     inkscape:window-maximized="1" />
  <metadata
     id="metadata7">
    <rdf:RDF>
      <cc:Work
         rdf:about="">
        <dc:format>image/svg+xml</dc:format>
        <dc:type
           rdf:resource="http://purl.org/dc/dcmitype/StillImage" />
        <dc:title></dc:title>
      </cc:Work>
    </rdf:RDF>
  </metadata>
  <g
     inkscape:label="Layer 1"
     inkscape:groupmode="layer"
     id="layer1"
     transform="translate(0,-708.66142)">
    <rect
       style="fill:#d8e7fd;fill-opacity:1"
       id="rect4197"
       width="535.3808"
       height="344.46204"
       x="-2.0203052"
       y="709.92047"
       ry="0" />
    <g
       id="g4267"
       transform="translate(-111.11678,-368.70568)">
      <g
         transform="translate(-32.733394,802.43107)"
         id="g4190">
        <rect
           style="fill:#000000"
           id="rect4140"
           width="364.28571"
           height="250.00003"
           x="160"
           y="300.93362"
           ry="25.714285" />
        <rect
           style="fill:#f9f9f9"
           id="rect4142"
           width="4.2857141"
           height="5.7142859"
           x="358.57144"
           y="428.07648"
           ry="2.1428571" />
        <rect
           style="fill:#f9f9f9"
           id="rect4144"
           width="11.428572"
           height="8.5714283"
           x="300"
           y="419.50507"
           ry="4.2857141" />
        <rect
           style="fill:#d8e7fd;fill-opacity:1"
           id="rect4146"
           width="320"
           height="202.85716"
           x="182.14285"
           y="325.2193"
           ry="4.2857099" />
        <path
           style="fill:#000000;fill-opacity:1;fill-rule:evenodd;stroke:#000000;stroke-width:0.91333276px;stroke-linecap:butt;stroke-linejoin:miter;stroke-opacity:1"
           d="m 297.43321,546.59081 c -24.95879,47.26849 -26.1473,45.83611 -26.1473,45.83611 43.5388,0 73.78363,0 140.24462,0 l -28.52432,-48.70086 z"
           id="path4172"
           inkscape:connector-curvature="0"
           sodipodi:nodetypes="ccccc" />
      </g>
      <g
         transform="matrix(1.1067961,0,0,1,-219.31914,794.27805)"
         id="g4178">
        <rect
           style="fill:#000000;fill-opacity:1"
           id="rect4174"
           width="147.14285"
           height="195.71429"
           x="547.14288"
           y="403.79077"
           ry="15.563368" />
        <rect
           style="fill:#d8e7fd;fill-opacity:1"
           id="rect4176"
           width="119.62833"
           height="168.57143"
           x="561.49823"
           y="416.64792"
           ry="16.544876" />
      </g>
      <g
         transform="translate(-30.886394,799.69646)"
         id="g4186">
        <rect
           style="fill:#000000;fill-opacity:1"
           id="rect4182"
           width="65"
           height="112.14286"
           x="587.14282"
           y="480.93359"
           ry="12.86118" />
        <rect
           style="fill:#d8e7fd;fill-opacity:1"
           id="rect4184"
           width="58.872181"
           height="82.85714"
           x="589.99371"
           y="495.21936"
           ry="10.004064" />
      </g>
    </g>
    <path
       style="fill:#ffffff;fill-opacity:1;stroke:none;stroke-opacity:1"
       d="m -1.5211275,173.33959 0,-172.2310094 267.1853475,0 267.18535,0 0,172.2310094 0,172.23101 -267.18535,0 -267.1853475,0 0,-172.23101 z M 267.38915,315.01348 c -1.08646,-1.80564 -5.95282,-10.10152 -10.81414,-18.43528 -4.86132,-8.33376 -9.47478,-16.17507 -10.25212,-17.42513 l -1.41337,-2.27284 14.6705,0 14.6705,0 0.006,11.86929 c 0.003,6.52811 0.50894,13.68225 1.1241,15.89809 1.45366,5.23619 6.63111,10.04355 12.37421,11.48967 6.39855,1.61117 131.24842,1.61117 137.64697,0 5.7431,-1.44612 10.92055,-6.25348 12.37421,-11.48967 1.38078,-4.97365 1.54602,-165.67167 0.17643,-171.57436 -0.49781,-2.14546 -2.1916,-5.26979 -3.76397,-6.94294 -5.07878,-5.40383 -7.31705,-5.82373 -31.0441,-5.82373 l -21.68371,0 -0.31956,-37.197506 -0.31955,-37.197508 -3.05317,-5.986513 C 374.45597,33.430156 368.23912,28.321781 361.30275,26.395234 358.84724,25.713229 303.6354,25.361599 198.41988,25.357875 60.945437,25.353009 38.566688,25.555657 34.22597,26.844712 28.154391,28.647778 21.435421,34.169629 18.394544,39.855452 l -2.238002,4.184612 -0.270951,104.992306 c -0.300434,116.4163 -0.623796,110.35657 6.321895,118.47104 1.927526,2.25189 5.823923,5.10867 8.804863,6.4556 l 5.347244,2.41614 56.316005,0.2925 c 30.973802,0.16087 56.316002,0.57457 56.316002,0.91933 0,2.41809 -20.92126,38.6892 -22.31602,38.6892 -0.5702,0 -0.75578,0.45456 -0.41241,1.01015 0.40666,0.65798 25.46013,1.01015 71.86284,1.01015 l 71.23852,0 -1.97538,-3.283 z m 236.51457,-1.06503 c 1.52809,-1.00246 3.66408,-3.27531 4.74664,-5.05076 1.87566,-3.07618 1.9683,-5.41523 1.9683,-49.69513 0,-44.30856 -0.0916,-46.61724 -1.97186,-49.70097 -3.66319,-6.00784 -5.44302,-6.3625 -31.92938,-6.3625 l -23.90758,0 -3.92178,3.92177 -3.92176,3.92177 0,47.72932 c 0,46.58962 0.0502,47.81056 2.10269,51.13154 1.15649,1.87122 2.17926,3.40908 2.27285,3.41744 0.0935,0.008 1.98842,0.68643 4.21076,1.50682 3.18688,1.17645 8.63952,1.44003 25.8067,1.24748 19.01808,-0.21331 22.11685,-0.47424 24.54442,-2.06678 z"
       id="path4147"
       inkscape:connector-curvature="0"
       transform="translate(0,708.66142)" />
    <path
       style="fill:#ffffff;fill-opacity:1;stroke:none;stroke-opacity:1"
       d="m 39.526607,250.68267 c -0.700099,-1.30815 -1.045694,-34.16835 -1.045694,-99.42787 0,-87.265838 0.166242,-97.640221 1.587383,-99.061362 1.42944,-1.42944 17.189211,-1.587383 158.391924,-1.587383 120.61221,0 157.08431,0.279786 158.01672,1.212184 0.89427,0.894273 1.21218,10.034181 1.21218,34.850262 l 0,33.638079 -34.63622,0 c -33.91256,0 -34.73022,0.0475 -39.13526,2.27284 -2.47447,1.25007 -5.52549,3.81742 -6.78004,5.70523 l -2.28099,3.43238 0,60.45976 0,60.45978 -117.14216,0 c -114.781163,0 -117.163225,-0.0394 -118.187843,-1.9539 z"
       id="path4149"
       inkscape:connector-curvature="0"
       transform="translate(0,708.66142)" />
    <path
       style="fill:#ffffff;fill-opacity:1;stroke:none;stroke-opacity:1"
       d="m 305.66626,301.18948 c -5.36742,-1.3067 -9.34428,-3.96535 -11.77177,-7.86979 l -2.37036,-3.81256 0,-71.72083 0,-71.72083 2.22293,-3.57401 c 1.22261,-1.96571 4.01192,-4.57948 6.19845,-5.80838 3.96258,-2.22709 4.14862,-2.23436 57.16377,-2.23436 50.91486,0 53.35489,0.085 57.08683,1.9889 2.14421,1.0939 4.96716,3.70767 6.27321,5.80838 l 2.37464,3.81947 0.2794,69.49282 c 0.1976,49.14881 -0.0535,70.72928 -0.85791,73.71645 -1.56701,5.81943 -6.63962,10.37816 -13.08649,11.76077 -5.79228,1.24222 -98.47626,1.38008 -103.5127,0.15397 z"
       id="path4151"
       inkscape:connector-curvature="0"
       transform="translate(0,708.66142)" />
    <path
       style="fill:#ffffff;fill-opacity:1;stroke:none;stroke-opacity:1"
       d="m 453.42647,298.53911 c -1.51389,-0.82156 -3.21852,-2.36447 -3.78807,-3.42868 -0.6493,-1.21322 -1.03555,-14.79924 -1.03555,-36.42425 l 0,-34.48929 2.95275,-2.95276 2.95276,-2.95275 22.88384,0 22.88384,0 2.95275,2.95275 2.95275,2.95276 0,34.48929 c 0,21.7231 -0.38499,35.20867 -1.04009,36.43275 -2.35708,4.40423 -5.70244,4.99719 -27.95163,4.95436 -16.56874,-0.0319 -21.59276,-0.35625 -23.76335,-1.53418 z"
       id="path4153"
       inkscape:connector-curvature="0"
       transform="translate(0,708.66142)" />
  </g>
</svg>
