<?xml version="1.0" encoding="UTF-8" standalone="no"?>
<!-- Created with Inkscape (http://www.inkscape.org/) -->

<svg
   xmlns:dc="http://purl.org/dc/elements/1.1/"
   xmlns:cc="http://creativecommons.org/ns#"
   xmlns:rdf="http://www.w3.org/1999/02/22-rdf-syntax-ns#"
   xmlns:svg="http://www.w3.org/2000/svg"
   xmlns="http://www.w3.org/2000/svg"
   xmlns:sodipodi="http://sodipodi.sourceforge.net/DTD/sodipodi-0.dtd"
   xmlns:inkscape="http://www.inkscape.org/namespaces/inkscape"
   width="220mm"
   height="160mm"
   viewBox="0 0 779.52756 566.92913"
   id="svg2"
   version="1.1"
   inkscape:version="0.91 r13725"
   sodipodi:docname="list.svg">
  <defs
     id="defs4" />
  <sodipodi:namedview
     id="base"
     pagecolor="#ffffff"
     bordercolor="#666666"
     borderopacity="1.0"
     inkscape:pageopacity="0.0"
     inkscape:pageshadow="2"
     inkscape:zoom="1.4"
     inkscape:cx="470.57818"
     inkscape:cy="434.27323"
     inkscape:document-units="px"
     inkscape:current-layer="g4720"
     showgrid="false"
     showguides="false"
     inkscape:window-width="1366"
     inkscape:window-height="705"
     inkscape:window-x="-8"
     inkscape:window-y="-8"
     inkscape:window-maximized="1" />
  <metadata
     id="metadata7">
    <rdf:RDF>
      <cc:Work
         rdf:about="">
        <dc:format>image/svg+xml</dc:format>
        <dc:type
           rdf:resource="http://purl.org/dc/dcmitype/StillImage" />
        <dc:title></dc:title>
      </cc:Work>
    </rdf:RDF>
  </metadata>
  <g
     inkscape:label="Layer 1"
     inkscape:groupmode="layer"
     id="layer1"
     transform="translate(0,-485.43307)">
    <rect
       style="fill:#d8e7fd;fill-opacity:1;stroke:none;stroke-opacity:1"
       id="rect4585"
       width="796.00024"
       height="577.80725"
       x="-1.1834548"
       y="484.65643"
       ry="2.8361678" />
    <g
       id="g4720"
       transform="translate(-15.714286,-55.714286)">
      <rect
         ry="0.90241653"
         y="882.60651"
         x="440.66708"
         height="89.423172"
         width="83.618156"
         id="rect4140"
         style="fill:#ffffff;fill-opacity:1;stroke:none" />
      <g
         transform="matrix(0.79330007,0,0,0.84025594,139.52564,506.24205)"
         id="g4549">
        <g
           id="g4460">
          <rect
             ry="35.714287"
             y="103.79078"
             x="107.14286"
             height="488.57144"
             width="378.57144"
             id="rect4136"
             style="fill:#000000;fill-opacity:1;stroke:none" />
          <rect
             ry="37.364468"
             y="119.14793"
             x="129.28571"
             height="452.85718"
             width="335.71426"
             id="rect4138"
             style="fill:#d8e7fd;fill-opacity:1;stroke:none" />
          <rect
             ry="0"
             y="478.59555"
             x="351.53311"
             height="113.07581"
             width="23.172234"
             id="rect4142"
             style="fill:#000000;fill-opacity:1;stroke:none" />
          <rect
             ry="0.15917315"
             y="478.59555"
             x="351.89023"
             height="24.121109"
             width="134.11389"
             id="rect4144"
             style="fill:#000000;fill-opacity:1;stroke:none" />
          <path
             inkscape:connector-curvature="0"
             id="path4150"
             d="m 374.3849,574.21841 0.034,-17.90577 32.48989,-27.01189 32.48989,-27.01187 23.29153,0.19415 23.29152,0.19415 -43.61982,34.89978 c -23.9909,19.19489 -47.50947,38.04665 -52.26351,41.89279 -4.75403,3.84613 -10.24207,8.2668 -12.19564,9.8237 l -3.55195,2.83072 0.0341,-17.90576 z"
             style="fill:#000000;fill-opacity:1;stroke:none" />
          <rect
             y="178.07649"
             x="165"
             height="19.285715"
             width="22.142857"
             id="rect4349"
             style="fill:#000000;fill-opacity:1;stroke:none;stroke-opacity:1" />
          <rect
             y="178.07649"
             x="199.28572"
             height="20"
             width="192.14285"
             id="rect4351"
             style="fill:#000000;fill-opacity:1;stroke:none;stroke-opacity:1" />
          <rect
             y="214.14792"
             x="164.64285"
             height="15.714286"
             width="111.78571"
             id="rect4353"
             style="fill:#000000;fill-opacity:1;stroke:none;stroke-opacity:1" />
          <rect
             y="213.79077"
             x="285.35715"
             height="15.714286"
             width="56.785713"
             id="rect4355"
             style="fill:#000000;fill-opacity:1;stroke:none;stroke-opacity:1" />
          <rect
             y="243.07648"
             x="165.35715"
             height="19.285715"
             width="22.142857"
             id="rect4349-7"
             style="fill:#000000;fill-opacity:1;stroke:none;stroke-opacity:1" />
          <rect
             y="243.07648"
             x="199.64285"
             height="20"
             width="192.14285"
             id="rect4351-2"
             style="fill:#000000;fill-opacity:1;stroke:none;stroke-opacity:1" />
          <rect
             y="279.50507"
             x="165.35716"
             height="19.285715"
             width="22.142857"
             id="rect4349-8"
             style="fill:#000000;fill-opacity:1;stroke:none;stroke-opacity:1" />
          <rect
             y="279.50507"
             x="199.64287"
             height="20"
             width="78.571426"
             id="rect4351-3"
             style="fill:#000000;fill-opacity:1;stroke:none;stroke-opacity:1" />
          <rect
             y="279.50504"
             x="286.78574"
             height="20"
             width="78.571426"
             id="rect4351-3-5"
             style="fill:#000000;fill-opacity:1;stroke:none;stroke-opacity:1" />
          <rect
             y="311.64792"
             x="164.28572"
             height="20"
             width="135"
             id="rect4351-3-7"
             style="fill:#000000;fill-opacity:1;stroke:none;stroke-opacity:1" />
          <rect
             y="352.36218"
             x="251.78569"
             height="20"
             width="169.28572"
             id="rect4351-3-7-4"
             style="fill:#000000;fill-opacity:1;stroke:none;stroke-opacity:1" />
          <rect
             y="386.64792"
             x="251.07141"
             height="20"
             width="169.28572"
             id="rect4351-3-7-2"
             style="fill:#000000;fill-opacity:1;stroke:none;stroke-opacity:1" />
          <rect
             y="424.50507"
             x="250.35715"
             height="20"
             width="91.428574"
             id="rect4351-3-7-5"
             style="fill:#000000;fill-opacity:1;stroke:none;stroke-opacity:1" />
        </g>
        <g
           id="g4480"
           transform="matrix(0.87895485,0.47690499,-0.47690499,0.87895485,129.6495,-383.85164)">
          <g
             id="g4202">
            <path
               style="fill:#000000;fill-opacity:1;stroke:none;stroke-opacity:1"
               d="m 583.64184,554.6181 26.37929,-3.96095 28.87085,-2.83025 -26.5931,73.49497 z"
               id="rect4197"
               inkscape:connector-curvature="0"
               sodipodi:nodetypes="ccccc" />
            <rect
               style="fill:#ffffff;fill-opacity:1;stroke:none;stroke-opacity:1"
               id="rect4200"
               width="56.821079"
               height="8.8388348"
               x="584.37323"
               y="545.77069" />
          </g>
          <rect
             ry="0"
             y="224.70212"
             x="583.58099"
             height="330.00003"
             width="52.857143"
             id="rect4170"
             style="fill:#000000;fill-opacity:1;stroke:none" />
          <rect
             y="232.83139"
             x="595.71429"
             height="310.82199"
             width="8.5714283"
             id="rect4221"
             style="fill:#ffffff;fill-opacity:1;stroke:none;stroke-opacity:1" />
          <rect
             y="233.08392"
             x="614.28571"
             height="310.56946"
             width="8.5714283"
             id="rect4221-2"
             style="fill:#ffffff;fill-opacity:1;stroke:none;stroke-opacity:1" />
          <path
             inkscape:connector-curvature="0"
             id="path4259"
             d="m 604.55553,588.0472 c 6.90043,17.04142 7.35457,17.96038 7.35457,17.96038 l 7.66754,-17.90293 z"
             style="fill:#ffffff;fill-rule:evenodd;stroke:#000000;stroke-width:1.25122344px;stroke-linecap:butt;stroke-linejoin:miter;stroke-opacity:1" />
          <rect
             y="226.5625"
             x="583.3631"
             height="3.2829957"
             width="4.2931485"
             id="rect4270"
             style="fill:#000000;fill-opacity:1;stroke:none;stroke-opacity:1" />
          <rect
             y="175.29727"
             x="583.86816"
             height="56.316006"
             width="10.85914"
             id="rect4272"
             style="fill:#000000;fill-opacity:1;stroke:none;stroke-opacity:1" />
          <rect
             y="174.66591"
             x="625.41071"
             height="56.316006"
             width="10.85914"
             id="rect4272-3"
             style="fill:#000000;fill-opacity:1;stroke:none;stroke-opacity:1" />
          <rect
             transform="matrix(0,1,-1,0,0,0)"
             y="-636.01727"
             x="174.16084"
             height="52.318722"
             width="10.85914"
             id="rect4272-3-6"
             style="fill:#000000;fill-opacity:1;stroke:none;stroke-opacity:1" />
          <rect
             transform="matrix(0,1,-1,0,0,0)"
             y="-635.44507"
             x="209.96834"
             height="51.425865"
             width="10.85914"
             id="rect4272-3-6-3"
             style="fill:#000000;fill-opacity:1;stroke:none;stroke-opacity:1" />
        </g>
        <rect
           style="fill:#d8e7fd;fill-opacity:1;stroke:none;stroke-opacity:1"
           id="rect4545"
           width="120.12077"
           height="96.469566"
           x="374.7666"
           y="501.82907" />
        <rect
           style="fill:#000000;fill-opacity:1;stroke:none;stroke-opacity:1"
           id="rect4547"
           width="143.89026"
           height="19.573967"
           x="-68.74852"
           y="676.24957"
           transform="matrix(0.77614275,-0.63055724,0.61386496,0.78941106,0,0)" />
      </g>
      <path
         style="fill:#ffffff;fill-opacity:1;stroke:none;stroke-opacity:1"
         d="m 0.10452539,576.27749 c -0.52520257,-0.52521 -0.95491371,-130.31471 -0.95491371,-288.42112 0,-260.81374 0.209508,-287.54660385 2.25969642,-288.33333499 C 4.8187835,-1.7853035 791.01767,-1.4748186 793.08168,-0.16431856 c 1.4255,0.90509728 1.7159,59.63268856 1.42857,288.90669856 l -0.36064,287.77067 -396.54508,0.35967 c -218.0998,0.19783 -396.97480218,-0.07 -397.50000461,-0.59523 z M 465.65438,425.00738 l 44.09563,-37.93426 -0.43381,-86.27923 -0.43382,-86.27922 38.16273,-74.7151 c 20.98949,-41.0933 42.60786,-83.257882 48.04082,-93.699073 5.43295,-10.44119 9.56007,-19.498555 9.17138,-20.127477 -0.92017,-1.48885 -36.60556,-22.037823 -37.13888,-21.3859438 -0.22382,0.2735718 -4.44859,8.5331178 -9.38838,18.3545458 -4.93978,9.821429 -11.37008,22.357143 -14.28955,27.857143 -2.91947,5.5 -11.66853,22.535715 -19.44236,37.857143 L 509.8639,116.51305 509.14961,93.415665 c -0.7069,-22.858565 -0.7586,-23.160054 -5,-29.158487 -2.35714,-3.333606 -6.85714,-7.404068 -10,-9.045471 -5.67368,-2.963167 -6.63956,-2.98437 -135.94853,-2.98437 l -130.23424,0 -6.19433,4.34915 c -3.40688,2.392031 -7.80147,7.21346 -9.76576,10.714285 l -3.57142,6.365136 -0.44293,179.285712 c -0.32522,131.63956 -0.004,181.31749 1.2064,186.93099 1.84678,8.56066 9.11314,17.9153 16.37938,21.08667 3.38766,1.47854 24.37025,1.88223 100.13315,1.92643 l 95.84742,0.0559 44.09563,-37.93424 z"
         id="path4171"
         inkscape:connector-curvature="0"
         transform="translate(15.714286,541.14736)" />
      <path
         style="fill:#ffffff;fill-opacity:1;stroke:none;stroke-opacity:1"
         d="m 240.9283,440.07001 c -5.05989,-3.20889 -7.66511,-6.19984 -10.26573,-11.78572 l -3.48505,-7.48552 -0.006,-164.28572 c -0.004,-110.27344 0.48669,-166.059822 1.49255,-169.681905 1.95015,-7.02244 9.12828,-15.096259 16.33042,-18.36812 5.37624,-2.442372 12.37275,-2.60343 114.37462,-2.632885 l 108.64808,-0.03137 7.26184,3.618728 c 4.5331,2.258937 8.79874,5.834924 11.35191,9.516554 l 4.09009,5.897825 0.39821,33.697738 0.39822,33.69773 -27.54107,53.9047 -27.54107,53.9047 -56.78572,0.0239 -56.78571,0.0239 0,9.28571 0,9.28572 51.58141,0 c 48.56484,0 51.52123,0.1462 50.55222,2.5 -0.56608,1.375 -1.35269,3.625 -1.74803,5 -0.66692,2.31944 -4.31807,2.5 -50.55222,2.5 l -49.83338,0 0,9.28571 0,9.28572 49.4683,0 49.4683,0 -0.8315,5.35714 c -0.45733,2.94643 -1.25855,12.10714 -1.78049,20.35714 l -0.94898,15 7.66932,-7.17254 c 4.21813,-3.9449 13.53298,-12.78419 20.69966,-19.64286 7.16669,-6.85867 14.05479,-12.47031 15.30689,-12.47031 2.88153,0 6.16524,-5.68454 4.0418,-6.9969 -0.90289,-0.55802 3.79493,-11.01282 11.95441,-26.60404 l 13.4418,-25.68478 0.041,58.92858 0.041,58.92857 -45,0 -45,0 0,38.57143 0,38.57142 -76.86317,0 -76.86318,0 -6.78068,-4.30018 z m 154.79274,-109.98553 0,-8.57143 -37.14286,0 -37.14285,0 0,8.57143 0,8.57143 37.14285,0 37.14286,0 0,-8.57143 z m -34.28571,-95.01719 0,-9.30288 -53.92858,0.37431 -53.92857,0.37433 -0.42531,8.92857 -0.42531,8.92857 54.35388,0 54.35389,0 0,-9.3029 z m -88.57143,-27.12567 0,-9.28571 -9.28572,0 -9.28571,0 0,9.28571 0,9.28572 9.28571,0 9.28572,0 0,-9.28572 z m 72.56816,0.35715 -0.42531,-8.92858 -31.78571,-0.38447 -31.78571,-0.38447 0,9.31304 0,9.31305 32.21102,0 32.21103,0 -0.42532,-8.92857 z m 68.86041,-0.38448 0,-9.31304 -31.78572,0.38447 -31.78571,0.38447 -0.42531,8.92858 -0.42531,8.92857 32.21102,0 32.21103,0 0,-9.31305 z m 21.42857,-29.97267 0,-9.28571 -77.14286,0 -77.14285,0 0,9.28571 0,9.28572 77.14285,0 77.14286,0 0,-9.28572 z m -162.85714,-0.71428 0,-8.57143 -9.28572,0 -9.28571,0 0,8.57143 0,8.57143 9.28571,0 9.28572,0 0,-8.57143 z m 71.42857,-25.71429 0,-7.14286 -45,0 -45,0 0,7.14286 0,7.14286 45,0 45,0 0,-7.14286 z m 51.42857,0 0,-7.14286 -22.85714,0 -22.85715,0 0,7.14286 0,7.14286 22.85715,0 22.85714,0 0,-7.14286 z m -122.85714,-28.57143 0,-8.57143 -9.28572,0 -9.28571,0 0,8.57143 0,8.57143 9.28571,0 9.28572,0 0,-8.57143 z m 161.42857,0 0,-8.57143 -76.42857,0 -76.42857,0 0,8.57143 0,8.57143 76.42857,0 76.42857,0 0,-8.57143 z"
         id="path4173"
         inkscape:connector-curvature="0"
         transform="translate(15.714286,541.14736)" />
      <path
         style="fill:#ffffff;fill-opacity:1;stroke:none;stroke-opacity:1"
         d="m 421.43533,412.94162 0,-25.71428 30,0 c 16.5,0 30,0.26527 30,0.58949 0,0.81108 -58.29573,50.83908 -59.24085,50.83908 -0.41753,0 -0.75915,-11.57143 -0.75915,-25.71429 z"
         id="path4175"
         inkscape:connector-curvature="0"
         transform="translate(15.714286,541.14736)" />
      <path
         style="fill:#ffffff;fill-opacity:1;stroke:none;stroke-opacity:1"
         d="m 572.51773,41.393485 -9.63188,-5.719684 4.33176,-8.581166 4.33176,-8.581166 8.15726,4.564129 c 12.56889,7.032508 12.4064,6.67883 7.3541,16.006896 -2.42628,4.479663 -4.52386,8.119154 -4.66127,8.087758 -0.13742,-0.0314 -4.58419,-2.630941 -9.88173,-5.776767 z"
         id="path4177"
         inkscape:connector-curvature="0"
         transform="translate(15.714286,541.14736)" />
      <path
         style="fill:#ffffff;fill-opacity:1;stroke:none;stroke-opacity:1"
         d="m 566.98188,52.602376 c -6.43991,-3.718554 -9.96908,-6.161373 -9.74501,-6.745296 0.19321,-0.503502 0.63731,-0.915458 0.98687,-0.915458 0.34957,0 5.11792,2.593846 10.59633,5.764102 7.04313,4.075723 9.84593,6.063345 9.56873,6.785714 -0.21562,0.561887 -0.59871,1.003425 -0.85132,0.981195 -0.25261,-0.02223 -5.00263,-2.663846 -10.5556,-5.870257 z"
         id="path4179"
         inkscape:connector-curvature="0"
         transform="translate(15.714286,541.14736)" />
    </g>
  </g>
</svg>
