<?xml version="1.0" encoding="UTF-8" standalone="no"?>
<!-- Created with Inkscape (http://www.inkscape.org/) -->

<svg
   xmlns:dc="http://purl.org/dc/elements/1.1/"
   xmlns:cc="http://creativecommons.org/ns#"
   xmlns:rdf="http://www.w3.org/1999/02/22-rdf-syntax-ns#"
   xmlns:svg="http://www.w3.org/2000/svg"
   xmlns="http://www.w3.org/2000/svg"
   xmlns:sodipodi="http://sodipodi.sourceforge.net/DTD/sodipodi-0.dtd"
   xmlns:inkscape="http://www.inkscape.org/namespaces/inkscape"
   width="210mm"
   height="97mm"
   viewBox="0 0 744.09449 343.70079"
   id="svg2"
   version="1.1"
   inkscape:version="0.91 r13725"
   sodipodi:docname="coffe-logo.svg">
  <defs
     id="defs4" />
  <sodipodi:namedview
     id="base"
     pagecolor="#ffffff"
     bordercolor="#666666"
     borderopacity="1.0"
     inkscape:pageopacity="0.0"
     inkscape:pageshadow="2"
     inkscape:zoom="0.98994949"
     inkscape:cx="352.37381"
     inkscape:cy="277.56283"
     inkscape:document-units="px"
     inkscape:current-layer="layer1"
     showgrid="false"
     inkscape:window-width="1366"
     inkscape:window-height="705"
     inkscape:window-x="-8"
     inkscape:window-y="-8"
     inkscape:window-maximized="1" />
  <metadata
     id="metadata7">
    <rdf:RDF>
      <cc:Work
         rdf:about="">
        <dc:format>image/svg+xml</dc:format>
        <dc:type
           rdf:resource="http://purl.org/dc/dcmitype/StillImage" />
        <dc:title></dc:title>
      </cc:Work>
    </rdf:RDF>
  </metadata>
  <g
     inkscape:label="Layer 1"
     inkscape:groupmode="layer"
     id="layer1"
     transform="translate(0,-708.66142)">
    <rect
       style="opacity:1;fill:#ffbc00;fill-opacity:1;stroke:none;stroke-width:3;stroke-miterlimit:4;stroke-dasharray:none;stroke-opacity:1"
       id="rect4290"
       width="752.85712"
       height="355.22406"
       x="-4.3394394"
       y="699.6405" />
    <g
       id="g4322"
       transform="translate(0.92094376,-7.5273106)">
      <path
         sodipodi:nodetypes="cccccc"
         inkscape:connector-curvature="0"
         id="path4192"
         d="m 176.20322,865.63416 35.35534,0.50508 -22.72843,123.23859 -77.27666,1.0101 -30.809653,-123.23854 31.819803,-0.50508"
         style="fill:none;fill-rule:evenodd;stroke:#3b43ff;stroke-width:1px;stroke-linecap:butt;stroke-linejoin:miter;stroke-opacity:1" />
      <path
         sodipodi:nodetypes="ccsscsssscsccsscssccc"
         inkscape:connector-curvature="0"
         id="path4194"
         d="m 96.827797,928.67553 -15.21499,-60.91914 10.54303,-0.11424 c 5.79867,-0.0628 12.625483,-0.11965 15.170703,-0.12627 l 4.62766,-0.012 0.64651,3.16943 c 0.9638,4.72493 3.73344,10.02093 7.24449,13.85262 13.45295,14.68152 37.56247,14.63945 51.19873,-0.0893 3.07125,-3.31732 6.79514,-10.06673 5.86972,-10.63867 -0.37635,-0.2326 -0.31744,-0.43752 0.18074,-0.6287 0.44314,-0.17004 0.96065,-1.54143 1.2924,-3.42482 0.30432,-1.72767 0.11074,-2.69623 0.18714,-2.76968 0.0764,-0.0735 7.75771,-0.51208 16.45227,-0.35696 11.15027,0.19867 15.75256,-0.26916 15.61916,0.12214 -0.10402,0.30513 -5.17219,28.3549 -11.2626,61.45979 l -11.07347,60.1907 -3.28299,0.2796 c -1.80565,0.1538 -18.96562,0.4248 -38.13325,0.6021 l -34.85027,0.3226 -15.214983,-60.9191 z"
         style="opacity:1;fill:#ffffff;fill-opacity:1;stroke:#ffffff;stroke-width:1.51522887;stroke-miterlimit:4;stroke-dasharray:none;stroke-opacity:1" />
      <g
         transform="translate(-3.6039227,-3.3853485)"
         style="fill:#2b2200;fill-opacity:1;stroke:#470d00;stroke-opacity:1"
         id="g4245">
        <path
           sodipodi:nodetypes="ccccccccccccc"
           inkscape:connector-curvature="0"
           id="path4271"
           d="m 81.428572,860.57648 134.642858,-1.07143 10.35714,-46.42857 10.35714,-1.78571 2.5,-10.35714 L 220,796.64791 215.35714,786.29077 85,787.3622 l -5.714285,11.42857 -17.142857,4.28571 1.071428,10.71428 10.714286,0.35715 z"
           style="fill:none;fill-rule:evenodd;stroke:#000000;stroke-width:1px;stroke-linecap:butt;stroke-linejoin:miter;stroke-opacity:1" />
        <path
           transform="translate(0,708.66142)"
           inkscape:connector-curvature="0"
           id="path4273"
           d="m 81.93044,150.79756 c -0.0089,-0.14732 -1.667078,-10.44559 -3.68478,-22.88505 -2.610125,-16.09183 -3.816166,-22.71059 -4.180197,-22.94096 -0.281406,-0.17807 -2.701426,-0.32623 -5.377821,-0.32924 l -4.866174,-0.005 -0.448582,-4.667384 c -0.257874,-2.683111 -0.314768,-4.787628 -0.133827,-4.950216 0.173116,-0.155555 3.368327,-1.036171 7.10047,-1.956924 3.732143,-0.920753 7.390884,-1.83395 8.130536,-2.029327 1.298773,-0.343067 1.441724,-0.54875 4.174758,-6.006781 l 2.829935,-5.651551 30.646672,-0.253873 c 16.85567,-0.13963 45.91453,-0.387002 64.57524,-0.549717 18.66072,-0.162714 34.03756,-0.190373 34.17077,-0.06146 0.13321,0.12891 1.23434,2.438548 2.44695,5.132528 1.29879,2.885444 2.44667,4.967025 2.79351,5.065771 0.32383,0.09219 4.44591,1.008006 9.1602,2.035139 4.71429,1.027134 8.69494,1.972838 8.84591,2.101564 0.23878,0.203615 -1.59625,8.768771 -1.95566,9.128181 -0.0743,0.0743 -2.24541,0.48612 -4.82478,0.91525 -2.57937,0.42913 -4.88523,0.90105 -5.12414,1.04871 -0.23892,0.14765 -2.72727,10.58279 -5.52967,23.18919 -2.80241,12.6064 -5.1504,22.96538 -5.21776,23.01996 -0.14241,0.11539 -110.66632,0.94032 -124.3189,0.92789 -5.058035,-0.005 -9.203732,-0.12891 -9.21266,-0.27623 z"
           style="opacity:1;fill:#441f00;fill-opacity:1;stroke:#441f00;stroke-width:1.07142854;stroke-miterlimit:4;stroke-dasharray:none;stroke-opacity:1" />
      </g>
      <path
         d="m 178.81785,873.68279 a 35.704006,34.427002 0 0 1 -44.66782,22.44279 35.704006,34.427002 0 0 1 -23.49573,-42.95878 35.704006,34.427002 0 0 1 44.4356,-22.86739 35.704006,34.427002 0 0 1 23.93492,42.73277"
         sodipodi:open="true"
         sodipodi:end="0.28773673"
         sodipodi:start="0.30750432"
         sodipodi:ry="34.427002"
         sodipodi:rx="35.704006"
         sodipodi:cy="863.26239"
         sodipodi:cx="144.78865"
         sodipodi:type="arc"
         id="path4190"
         style="opacity:1;fill:#ffbe00;fill-opacity:0.98837208;stroke:#ffbc00;stroke-width:3.44499063;stroke-miterlimit:4;stroke-dasharray:none;stroke-opacity:1" />
    </g>
    <flowRoot
       xml:space="preserve"
       id="flowRoot4342"
       style="font-style:normal;font-weight:normal;font-size:40px;line-height:125%;font-family:sans-serif;letter-spacing:0px;word-spacing:0px;fill:#000000;fill-opacity:1;stroke:none;stroke-width:1px;stroke-linecap:butt;stroke-linejoin:miter;stroke-opacity:1"
       transform="translate(14.285714,779.37571)"><flowRegion
         id="flowRegion4344"><rect
           id="rect4346"
           width="365.71429"
           height="95"
           x="262.85715"
           y="80.843636" /></flowRegion><flowPara
         id="flowPara4348"
         style="font-style:normal;font-variant:normal;font-weight:normal;font-stretch:normal;font-family:'Peace Sans';-inkscape-font-specification:'Peace Sans';font-size:427.5px">Dammy</flowPara><flowPara
         id="flowPara4350"
         style="font-style:normal;font-variant:normal;font-weight:normal;font-stretch:normal;font-family:'Peace Sans';-inkscape-font-specification:'Peace Sans';font-size:427.5px">cafe</flowPara></flowRoot>    <flowRoot
       xml:space="preserve"
       id="flowRoot4352"
       style="fill:black;stroke:none;stroke-opacity:1;stroke-width:1px;stroke-linejoin:miter;stroke-linecap:butt;fill-opacity:1;font-family:sans-serif;font-style:normal;font-weight:normal;font-size:40px;line-height:125%;letter-spacing:0px;word-spacing:0px"><flowRegion
         id="flowRegion4354"><rect
           id="rect4356"
           width="0"
           height="0"
           x="255.71428"
           y="92.986488" /></flowRegion><flowPara
         id="flowPara4358"></flowPara></flowRoot>    <flowRoot
       xml:space="preserve"
       id="flowRoot4360"
       style="fill:black;stroke:none;stroke-opacity:1;stroke-width:1px;stroke-linejoin:miter;stroke-linecap:butt;fill-opacity:1;font-family:'Peace Sans';font-style:normal;font-weight:normal;font-size:52.5px;line-height:125%;letter-spacing:0px;word-spacing:0px;-inkscape-font-specification:'Peace Sans';font-stretch:normal;font-variant:normal;"><flowRegion
         id="flowRegion4362"><rect
           id="rect4364"
           width="410"
           height="210"
           x="265.71429"
           y="70.843636"
           style="font-size:52.5px;-inkscape-font-specification:'Peace Sans';font-family:'Peace Sans';font-weight:normal;font-style:normal;font-stretch:normal;font-variant:normal;" /></flowRegion><flowPara
         id="flowPara4366"></flowPara></flowRoot>    <flowRoot
       xml:space="preserve"
       id="flowRoot4368"
       style="font-style:normal;font-weight:normal;font-size:40px;line-height:125%;font-family:sans-serif;letter-spacing:0px;word-spacing:0px;fill:#000000;fill-opacity:1;stroke:none;stroke-width:1px;stroke-linecap:butt;stroke-linejoin:miter;stroke-opacity:1"
       transform="matrix(1.2039505,0,0,1.2754067,128.72616,658.52056)"><flowRegion
         id="flowRegion4370"><rect
           id="rect4372"
           width="534.36261"
           height="351.55261"
           x="98.571426"
           y="73.700775" /></flowRegion><flowPara
         id="flowPara4374"
         style="font-style:normal;font-variant:normal;font-weight:normal;font-stretch:normal;font-size:65px;font-family:'Peace Sans';-inkscape-font-specification:'Peace Sans';fill:#ffffff;fill-opacity:1;stroke:none;stroke-opacity:1">Dummy</flowPara><flowPara
         id="flowPara4376"
         style="font-style:normal;font-variant:normal;font-weight:normal;font-stretch:normal;font-size:65px;font-family:'Peace Sans';-inkscape-font-specification:'Peace Sans';fill:#2b2200;fill-opacity:1;stroke:none;stroke-opacity:1">cafe</flowPara></flowRoot>  </g>
</svg>
