<?xml version="1.0" encoding="UTF-8" standalone="no"?>
<!-- Created with Inkscape (http://www.inkscape.org/) -->

<svg
   xmlns:dc="http://purl.org/dc/elements/1.1/"
   xmlns:cc="http://creativecommons.org/ns#"
   xmlns:rdf="http://www.w3.org/1999/02/22-rdf-syntax-ns#"
   xmlns:svg="http://www.w3.org/2000/svg"
   xmlns="http://www.w3.org/2000/svg"
   xmlns:sodipodi="http://sodipodi.sourceforge.net/DTD/sodipodi-0.dtd"
   xmlns:inkscape="http://www.inkscape.org/namespaces/inkscape"
   width="210mm"
   height="210mm"
   viewBox="0 0 744.09449 744.09448"
   id="svg2"
   version="1.1"
   inkscape:version="0.91 r13725"
   sodipodi:docname="boss_t.svg">
  <defs
     id="defs4" />
  <sodipodi:namedview
     id="base"
     pagecolor="#ffffff"
     bordercolor="#666666"
     borderopacity="1.0"
     inkscape:pageopacity="0.0"
     inkscape:pageshadow="2"
     inkscape:zoom="0.49497475"
     inkscape:cx="384.6538"
     inkscape:cy="266.83467"
     inkscape:document-units="px"
     inkscape:current-layer="layer1"
     showgrid="false"
     inkscape:window-width="1366"
     inkscape:window-height="705"
     inkscape:window-x="-8"
     inkscape:window-y="-8"
     inkscape:window-maximized="1" />
  <metadata
     id="metadata7">
    <rdf:RDF>
      <cc:Work
         rdf:about="">
        <dc:format>image/svg+xml</dc:format>
        <dc:type
           rdf:resource="http://purl.org/dc/dcmitype/StillImage" />
        <dc:title></dc:title>
      </cc:Work>
    </rdf:RDF>
  </metadata>
  <g
     inkscape:label="Layer 1"
     inkscape:groupmode="layer"
     id="layer1"
     transform="translate(0,-308.26772)">
    <g
       id="g4196"
       transform="translate(-15.627628,82.396671)">
      <g
         id="g4351"
         transform="matrix(1.0229177,0,0,0.99990692,-18.209712,0.07615308)">
        <rect
           ry="0"
           y="783.21387"
           x="3.7087564"
           height="274.01105"
           width="746.86823"
           id="rect4136"
           style="opacity:1;fill:#ff0000;fill-opacity:1;stroke:#ff0000;stroke-width:4.70321941;stroke-miterlimit:4;stroke-dasharray:none;stroke-opacity:1"
           transform="translate(15.627628,-82.396671)" />
        <path
           style="opacity:1;fill:#ff0000;fill-opacity:1;stroke:#ff0000;stroke-width:1.07142854;stroke-miterlimit:4;stroke-dasharray:none;stroke-opacity:1"
           d="m 13.385368,685.73811 c 6.433951,-7.51339 13.939783,-16.35268 16.679628,-19.64285 2.739845,-3.29018 5.079651,-5.98215 5.199569,-5.98215 0.119918,0 2.779071,3.09262 5.909228,6.87249 3.130158,3.77987 9.857265,11.77541 14.949125,17.76786 5.091861,5.99245 9.972991,11.73912 10.846961,12.77037 l 1.58902,1.875 -33.435811,0 -33.4358108,0 11.6980908,-13.66072 z"
           id="path4194"
           inkscape:connector-curvature="0" />
        <path
           style="opacity:1;fill:#ff0000;fill-opacity:1;stroke:#ff0000;stroke-width:1.07142854;stroke-miterlimit:4;stroke-dasharray:none;stroke-opacity:1"
           d="m 80.291601,686.60821 c 6.43395,-7.51339 13.93978,-16.35268 16.67962,-19.64285 2.73985,-3.29018 5.079649,-5.98215 5.199569,-5.98215 0.11992,0 2.77907,3.09262 5.90923,6.87249 3.13016,3.77987 9.85727,11.77541 14.94913,17.76786 5.09186,5.99245 9.97299,11.73912 10.84696,12.77037 l 1.58902,1.875 -33.43581,0 -33.435815,0 11.698096,-13.66072 z"
           id="path4194-5"
           inkscape:connector-curvature="0" />
        <path
           style="opacity:1;fill:#ff0000;fill-opacity:1;stroke:#ff0000;stroke-width:1.07142854;stroke-miterlimit:4;stroke-dasharray:none;stroke-opacity:1"
           d="m 147.46674,686.10313 c 6.43395,-7.51339 13.93978,-16.35268 16.67962,-19.64285 2.73985,-3.29018 5.07966,-5.98215 5.19957,-5.98215 0.11992,0 2.77907,3.09262 5.90923,6.87249 3.13016,3.77987 9.85727,11.77541 14.94913,17.76786 5.09186,5.99245 9.97299,11.73912 10.84696,12.77037 l 1.58902,1.875 -33.43581,0 -33.43581,0 11.69809,-13.66072 z"
           id="path4194-3"
           inkscape:connector-curvature="0" />
        <path
           style="opacity:1;fill:#ff0000;fill-opacity:1;stroke:#ff0000;stroke-width:1.07142854;stroke-miterlimit:4;stroke-dasharray:none;stroke-opacity:1"
           d="m 215.14697,686.60821 c 6.43395,-7.51339 13.93978,-16.35268 16.67962,-19.64285 2.73985,-3.29018 5.07965,-5.98215 5.19957,-5.98215 0.11992,0 2.77907,3.09262 5.90923,6.87249 3.13016,3.77987 9.85727,11.77541 14.94913,17.76786 5.09186,5.99245 9.97299,11.73912 10.84696,12.77037 l 1.58902,1.875 -33.43581,0 -33.43582,0 11.6981,-13.66072 z"
           id="path4194-6"
           inkscape:connector-curvature="0" />
        <path
           style="opacity:1;fill:#ff0000;fill-opacity:1;stroke:#ff0000;stroke-width:1.07142854;stroke-miterlimit:4;stroke-dasharray:none;stroke-opacity:1"
           d="m 282.3221,686.60821 c 6.43395,-7.51339 13.93979,-16.35268 16.67963,-19.64285 2.73985,-3.29018 5.07965,-5.98215 5.19957,-5.98215 0.11992,0 2.77907,3.09262 5.90923,6.87249 3.13016,3.77987 9.85726,11.77541 14.94912,17.76786 5.09186,5.99245 9.97299,11.73912 10.84696,12.77037 l 1.58902,1.875 -33.43581,0 -33.43581,0 11.69809,-13.66072 z"
           id="path4194-52"
           inkscape:connector-curvature="0" />
        <path
           style="opacity:1;fill:#ff0000;fill-opacity:1;stroke:#ff0000;stroke-width:1.07142854;stroke-miterlimit:4;stroke-dasharray:none;stroke-opacity:1"
           d="m 350.00233,686.10314 c 6.43395,-7.51339 13.93978,-16.35268 16.67963,-19.64285 2.73984,-3.29018 5.07965,-5.98215 5.19957,-5.98215 0.11991,0 2.77907,3.09262 5.90922,6.87249 3.13016,3.77987 9.85727,11.77541 14.94913,17.76786 5.09186,5.99245 9.97299,11.73912 10.84696,12.77037 l 1.58902,1.875 -33.43581,0 -33.43581,0 11.69809,-13.66072 z"
           id="path4194-66"
           inkscape:connector-curvature="0" />
        <path
           style="opacity:1;fill:#ff0000;fill-opacity:1;stroke:#ff0000;stroke-width:1.07142854;stroke-miterlimit:4;stroke-dasharray:none;stroke-opacity:1"
           d="m 415.66224,686.10313 c 6.43395,-7.51339 13.93979,-16.35268 16.67963,-19.64285 2.73985,-3.29018 5.07965,-5.98215 5.19957,-5.98215 0.11992,0 2.77907,3.09262 5.90923,6.87249 3.13016,3.77987 9.85726,11.77541 14.94912,17.76786 5.09186,5.99245 9.97299,11.73912 10.84696,12.77037 l 1.58902,1.875 -33.43581,0 -33.43581,0 11.69809,-13.66072 z"
           id="path4194-2"
           inkscape:connector-curvature="0" />
        <path
           style="opacity:1;fill:#ff0000;fill-opacity:1;stroke:#ff0000;stroke-width:1.07142854;stroke-miterlimit:4;stroke-dasharray:none;stroke-opacity:1"
           d="m 482.33231,686.60821 c 6.43395,-7.51339 13.93978,-16.35268 16.67963,-19.64285 2.73984,-3.29018 5.07965,-5.98215 5.19957,-5.98215 0.11992,0 2.77907,3.09262 5.90923,6.87249 3.13015,3.77987 9.85726,11.77541 14.94912,17.76786 5.09186,5.99245 9.97299,11.73912 10.84696,12.77037 l 1.58902,1.875 -33.43581,0 -33.43581,0 11.69809,-13.66072 z"
           id="path4194-8"
           inkscape:connector-curvature="0" />
        <path
           style="opacity:1;fill:#ff0000;fill-opacity:1;stroke:#ff0000;stroke-width:1.07142854;stroke-miterlimit:4;stroke-dasharray:none;stroke-opacity:1"
           d="m 550.51761,686.60821 c 6.43395,-7.51339 13.93978,-16.35268 16.67963,-19.64285 2.73984,-3.29018 5.07965,-5.98215 5.19957,-5.98215 0.11992,0 2.77907,3.09262 5.90923,6.87249 3.13015,3.77987 9.85726,11.77541 14.94912,17.76786 5.09186,5.99245 9.97299,11.73912 10.84696,12.77037 l 1.58902,1.875 -33.43581,0 -33.43581,0 11.69809,-13.66072 z"
           id="path4194-9"
           inkscape:connector-curvature="0" />
        <path
           style="opacity:1;fill:#ff0000;fill-opacity:1;stroke:#ff0000;stroke-width:1.07142854;stroke-miterlimit:4;stroke-dasharray:none;stroke-opacity:1"
           d="m 617.18767,686.60821 c 6.43395,-7.51339 13.93978,-16.35268 16.67963,-19.64285 2.73984,-3.29018 5.07965,-5.98215 5.19957,-5.98215 0.11992,0 2.77907,3.09262 5.90923,6.87249 3.13015,3.77987 9.85726,11.77541 14.94912,17.76786 5.09186,5.99245 9.97299,11.73912 10.84696,12.77037 l 1.58902,1.875 -33.43581,0 -33.43581,0 11.69809,-13.66072 z"
           id="path4194-7"
           inkscape:connector-curvature="0" />
        <path
           style="opacity:1;fill:#ff0000;fill-opacity:1;stroke:#ff0000;stroke-width:1.07142854;stroke-miterlimit:4;stroke-dasharray:none;stroke-opacity:1"
           d="m 679.60811,687.37624 c 6.43395,-7.51339 13.93979,-16.35268 16.67963,-19.64285 2.73985,-3.29018 5.07965,-5.98215 5.19957,-5.98215 0.11992,0 2.77907,3.09262 5.90923,6.87249 3.13016,3.77987 9.85726,11.77541 14.94912,17.76786 5.09186,5.99245 9.97299,11.73912 10.84696,12.77037 l 1.58902,1.875 -33.43581,0 -33.43581,0 11.69809,-13.66072 z"
           id="path4194-0"
           inkscape:connector-curvature="0" />
        <path
           style="opacity:1;fill:#ff0000;fill-opacity:1;stroke:#ff0000;stroke-width:1.07142854;stroke-miterlimit:4;stroke-dasharray:none;stroke-opacity:1"
           d="m 738.89382,685.2334 c 6.43395,-7.51339 13.93979,-16.35268 16.67963,-19.64285 2.73985,-3.29018 5.07965,-5.98215 5.19957,-5.98215 0.11992,0 2.77907,3.09262 5.90923,6.87249 3.13016,3.77987 9.85726,11.77541 14.94912,17.76786 5.09186,5.99245 9.97299,11.73912 10.84696,12.77037 l 1.58902,1.875 -33.43581,0 -33.43581,0 11.69809,-13.66072 z"
           id="path4194-0-5"
           inkscape:connector-curvature="0" />
      </g>
    </g>
  </g>
</svg>
